<svg xmlns="http://www.w3.org/2000/svg" width="1600" height="700" viewBox="0 0 1600 700" fill="none">
  <defs>
    <linearGradient id="bg" x1="80" y1="30" x2="1520" y2="670" gradientUnits="userSpaceOnUse">
      <stop stop-color="#020617"/>
      <stop offset="0.5" stop-color="#1D4ED8"/>
      <stop offset="1" stop-color="#7C3AED"/>
    </linearGradient>
    <linearGradient id="desk" x1="250" y1="430" x2="1230" y2="430" gradientUnits="userSpaceOnUse">
      <stop stop-color="#0F172A" stop-opacity="0.15"/>
      <stop offset="1" stop-color="#0F172A" stop-opacity="0.45"/>
    </linearGradient>
  </defs>
  <rect width="1600" height="700" rx="40" fill="url(#bg)"/>
  <circle cx="1290" cy="130" r="220" fill="#FFFFFF" fill-opacity="0.08"/>
  <circle cx="250" cy="590" r="180" fill="#FFFFFF" fill-opacity="0.05"/>
  <rect x="176" y="450" width="1100" height="26" rx="13" fill="url(#desk)"/>
  <rect x="300" y="185" width="760" height="220" rx="34" fill="#E2E8F0" fill-opacity="0.92"/>
  <rect x="352" y="225" width="656" height="140" rx="26" fill="#020617"/>
  <rect x="620" y="412" width="140" height="20" rx="10" fill="#020617" fill-opacity="0.28"/>
  <rect x="1170" y="212" width="150" height="270" rx="34" fill="#020617" fill-opacity="0.74" stroke="#FFFFFF" stroke-opacity="0.18"/>
  <rect x="1202" y="255" width="86" height="182" rx="24" fill="#E2E8F0" fill-opacity="0.9"/>
  <circle cx="250" cy="250" r="74" fill="#0F172A" fill-opacity="0.3"/>
  <path d="M226 218h48l28 28-28 28h-48l-28-28 28-28Z" fill="#A78BFA" fill-opacity="0.84"/>
  <rect x="206" y="520" width="156" height="56" rx="28" fill="#FFFFFF" fill-opacity="0.94"/>
  <rect x="384" y="520" width="122" height="56" rx="28" fill="#FFFFFF" fill-opacity="0.18"/>
</svg>
