<svg xmlns="http://www.w3.org/2000/svg" width="1600" height="700" viewBox="0 0 1600 700" fill="none">
  <defs>
    <linearGradient id="bg" x1="120" y1="40" x2="1490" y2="660" gradientUnits="userSpaceOnUse">
      <stop stop-color="#431407"/>
      <stop offset="0.55" stop-color="#EA580C"/>
      <stop offset="1" stop-color="#F59E0B"/>
    </linearGradient>
  </defs>
  <rect width="1600" height="700" rx="40" fill="url(#bg)"/>
  <circle cx="1330" cy="128" r="214" fill="#FFFFFF" fill-opacity="0.08"/>
  <circle cx="250" cy="594" r="164" fill="#FFFFFF" fill-opacity="0.05"/>
  <rect x="184" y="170" width="286" height="180" rx="34" fill="#FFFFFF" fill-opacity="0.16"/>
  <rect x="534" y="170" width="286" height="180" rx="34" fill="#FFFFFF" fill-opacity="0.18"/>
  <rect x="884" y="170" width="286" height="180" rx="34" fill="#FFFFFF" fill-opacity="0.2"/>
  <rect x="1234" y="170" width="180" height="180" rx="34" fill="#FFFFFF" fill-opacity="0.22"/>
  <rect x="228" y="222" width="198" height="76" rx="24" fill="#FFF7ED" fill-opacity="0.92"/>
  <rect x="594" y="210" width="166" height="96" rx="28" fill="#FEF3C7" fill-opacity="0.9"/>
  <rect x="950" y="204" width="156" height="108" rx="30" fill="#FDBA74" fill-opacity="0.92"/>
  <rect x="1268" y="210" width="112" height="96" rx="28" fill="#FFFFFF" fill-opacity="0.86"/>
  <rect x="204" y="446" width="1192" height="28" rx="14" fill="#7C2D12" fill-opacity="0.22"/>
  <rect x="356" y="520" width="220" height="60" rx="30" fill="#FFFFFF" fill-opacity="0.9"/>
  <rect x="606" y="520" width="152" height="60" rx="30" fill="#FFFFFF" fill-opacity="0.18"/>
</svg>
