<svg xmlns="http://www.w3.org/2000/svg" width="1200" height="900" viewBox="0 0 1200 900" fill="none">
  <defs>
    <linearGradient id="bg" x1="90" y1="50" x2="1120" y2="860" gradientUnits="userSpaceOnUse">
      <stop stop-color="#1E293B"/>
      <stop offset="0.5" stop-color="#2563EB"/>
      <stop offset="1" stop-color="#38BDF8"/>
    </linearGradient>
  </defs>
  <rect width="1200" height="900" rx="36" fill="url(#bg)"/>
  <circle cx="1000" cy="150" r="160" fill="#FFFFFF" fill-opacity="0.08"/>
  <circle cx="190" cy="740" r="170" fill="#FFFFFF" fill-opacity="0.06"/>
  <rect x="110" y="180" width="332" height="210" rx="34" fill="#FFFFFF" fill-opacity="0.14"/>
  <rect x="500" y="180" width="250" height="210" rx="34" fill="#FFFFFF" fill-opacity="0.16"/>
  <rect x="804" y="180" width="286" height="210" rx="34" fill="#FFFFFF" fill-opacity="0.18"/>
  <rect x="170" y="248" width="212" height="72" rx="24" fill="#FFFFFF" fill-opacity="0.9"/>
  <rect x="560" y="232" width="130" height="104" rx="30" fill="#DBEAFE" fill-opacity="0.92"/>
  <rect x="866" y="224" width="162" height="120" rx="32" fill="#93C5FD" fill-opacity="0.92"/>
  <rect x="146" y="560" width="908" height="170" rx="36" fill="#0F172A" fill-opacity="0.18" stroke="#FFFFFF" stroke-opacity="0.14"/>
  <rect x="210" y="612" width="180" height="78" rx="24" fill="#FFFFFF" fill-opacity="0.16"/>
  <rect x="454" y="612" width="180" height="78" rx="24" fill="#FFFFFF" fill-opacity="0.16"/>
  <rect x="698" y="612" width="260" height="78" rx="24" fill="#FFFFFF" fill-opacity="0.16"/>
</svg>
