<svg xmlns="http://www.w3.org/2000/svg" width="320" height="360" viewBox="0 0 320 360" fill="none">
  <rect width="320" height="360" rx="28" fill="#ffffff"/>
  <rect x="18" y="18" width="284" height="284" rx="24" fill="#ffffff" stroke="#0f172a" stroke-width="6"/>
  <rect x="40" y="40" width="56" height="56" fill="#0f172a"/>
  <rect x="52" y="52" width="32" height="32" fill="#ffffff"/>
  <rect x="224" y="40" width="56" height="56" fill="#0f172a"/>
  <rect x="236" y="52" width="32" height="32" fill="#ffffff"/>
  <rect x="40" y="224" width="56" height="56" fill="#0f172a"/>
  <rect x="52" y="236" width="32" height="32" fill="#ffffff"/>
  <rect x="122" y="42" width="14" height="14" fill="#0f172a"/>
  <rect x="150" y="42" width="14" height="14" fill="#0f172a"/>
  <rect x="164" y="56" width="14" height="14" fill="#0f172a"/>
  <rect x="122" y="70" width="14" height="14" fill="#0f172a"/>
  <rect x="136" y="84" width="14" height="14" fill="#0f172a"/>
  <rect x="164" y="84" width="14" height="14" fill="#0f172a"/>
  <rect x="192" y="112" width="14" height="14" fill="#0f172a"/>
  <rect x="108" y="112" width="14" height="14" fill="#0f172a"/>
  <rect x="122" y="126" width="14" height="14" fill="#0f172a"/>
  <rect x="150" y="126" width="14" height="14" fill="#0f172a"/>
  <rect x="178" y="126" width="14" height="14" fill="#0f172a"/>
  <rect x="206" y="126" width="14" height="14" fill="#0f172a"/>
  <rect x="122" y="154" width="14" height="14" fill="#0f172a"/>
  <rect x="136" y="168" width="14" height="14" fill="#0f172a"/>
  <rect x="164" y="168" width="14" height="14" fill="#0f172a"/>
  <rect x="192" y="168" width="14" height="14" fill="#0f172a"/>
  <rect x="220" y="168" width="14" height="14" fill="#0f172a"/>
  <rect x="108" y="182" width="14" height="14" fill="#0f172a"/>
  <rect x="136" y="196" width="14" height="14" fill="#0f172a"/>
  <rect x="150" y="210" width="14" height="14" fill="#0f172a"/>
  <rect x="178" y="210" width="14" height="14" fill="#0f172a"/>
  <rect x="206" y="210" width="14" height="14" fill="#0f172a"/>
  <rect x="122" y="238" width="14" height="14" fill="#0f172a"/>
  <rect x="150" y="238" width="14" height="14" fill="#0f172a"/>
  <rect x="178" y="238" width="14" height="14" fill="#0f172a"/>
  <rect x="206" y="238" width="14" height="14" fill="#0f172a"/>
  <rect x="234" y="238" width="14" height="14" fill="#0f172a"/>
  <rect x="108" y="252" width="14" height="14" fill="#0f172a"/>
  <rect x="136" y="266" width="14" height="14" fill="#0f172a"/>
  <rect x="164" y="266" width="14" height="14" fill="#0f172a"/>
  <rect x="192" y="266" width="14" height="14" fill="#0f172a"/>
  <rect x="220" y="266" width="14" height="14" fill="#0f172a"/>
  <text x="160" y="327" text-anchor="middle" fill="#0f172a" font-family="Arial, sans-serif" font-size="18" font-weight="700">PAGO QR DEMO</text>
  <text x="160" y="347" text-anchor="middle" fill="#64748b" font-family="Arial, sans-serif" font-size="12">Billetera movil tipo Yape</text>
</svg>
