<svg xmlns="http://www.w3.org/2000/svg" width="1200" height="900" viewBox="0 0 1200 900" fill="none">
  <defs>
    <linearGradient id="bg" x1="120" y1="50" x2="1080" y2="850" gradientUnits="userSpaceOnUse">
      <stop stop-color="#082F49"/>
      <stop offset="0.55" stop-color="#0F766E"/>
      <stop offset="1" stop-color="#34D399"/>
    </linearGradient>
  </defs>
  <rect width="1200" height="900" rx="36" fill="url(#bg)"/>
  <circle cx="1040" cy="176" r="160" fill="#FFFFFF" fill-opacity="0.08"/>
  <rect x="106" y="150" width="300" height="534" rx="34" fill="#0F172A" fill-opacity="0.34" stroke="#FFFFFF" stroke-opacity="0.14"/>
  <rect x="196" y="214" width="120" height="260" rx="42" fill="#E2E8F0" fill-opacity="0.95"/>
  <rect x="224" y="250" width="64" height="168" rx="24" fill="#0F172A"/>
  <circle cx="256" cy="592" r="68" fill="#FFFFFF" fill-opacity="0.9"/>
  <circle cx="256" cy="592" r="44" fill="#14B8A6" fill-opacity="0.92"/>
  <rect x="484" y="218" width="302" height="184" rx="36" fill="#ECFEFF" fill-opacity="0.94"/>
  <rect x="534" y="268" width="202" height="84" rx="42" fill="#0F172A"/>
  <rect x="520" y="584" width="294" height="124" rx="36" fill="#0F172A" fill-opacity="0.24" stroke="#FFFFFF" stroke-opacity="0.12"/>
  <rect x="572" y="628" width="42" height="42" rx="12" fill="#FFFFFF" fill-opacity="0.92"/>
  <rect x="636" y="628" width="42" height="42" rx="12" fill="#FFFFFF" fill-opacity="0.92"/>
  <rect x="700" y="628" width="42" height="42" rx="12" fill="#FFFFFF" fill-opacity="0.92"/>
  <rect x="852" y="248" width="220" height="380" rx="46" fill="#0F172A" fill-opacity="0.62" stroke="#FFFFFF" stroke-opacity="0.16"/>
  <rect x="902" y="312" width="120" height="218" rx="28" fill="#E2E8F0" fill-opacity="0.94"/>
  <rect x="882" y="694" width="160" height="24" rx="12" fill="#0F172A" fill-opacity="0.16"/>
</svg>
