<svg xmlns="http://www.w3.org/2000/svg" width="1600" height="700" viewBox="0 0 1600 700" fill="none">
  <defs>
    <linearGradient id="bg" x1="120" y1="50" x2="1480" y2="650" gradientUnits="userSpaceOnUse">
      <stop stop-color="#F8FAFC"/>
      <stop offset="0.58" stop-color="#DBEAFE"/>
      <stop offset="1" stop-color="#93C5FD"/>
    </linearGradient>
  </defs>
  <rect width="1600" height="700" rx="40" fill="url(#bg)"/>
  <circle cx="1320" cy="140" r="210" fill="#2563EB" fill-opacity="0.08"/>
  <circle cx="240" cy="610" r="140" fill="#2563EB" fill-opacity="0.05"/>
  <rect x="116" y="462" width="1090" height="24" rx="12" fill="#BFDBFE"/>
  <rect x="170" y="226" width="520" height="176" rx="30" fill="#FFFFFF" fill-opacity="0.85" stroke="#93C5FD"/>
  <rect x="220" y="278" width="210" height="22" rx="11" fill="#2563EB" fill-opacity="0.2"/>
  <rect x="220" y="324" width="316" height="18" rx="9" fill="#0F172A" fill-opacity="0.12"/>
  <rect x="220" y="360" width="268" height="18" rx="9" fill="#0F172A" fill-opacity="0.1"/>
  <rect x="820" y="174" width="470" height="270" rx="32" fill="#E2E8F0"/>
  <rect x="860" y="212" width="390" height="190" rx="24" fill="#0F172A"/>
  <rect x="1010" y="442" width="96" height="18" rx="9" fill="#0F172A" fill-opacity="0.18"/>
  <rect x="664" y="248" width="116" height="252" rx="28" fill="#0F172A" fill-opacity="0.78" stroke="#FFFFFF" stroke-opacity="0.2"/>
  <rect x="690" y="292" width="64" height="156" rx="18" fill="#E2E8F0" fill-opacity="0.9"/>
  <rect x="1340" y="218" width="120" height="240" rx="28" fill="#FFFFFF" fill-opacity="0.56"/>
  <rect x="1370" y="268" width="60" height="138" rx="18" fill="#0F172A" fill-opacity="0.66"/>
</svg>
