<svg xmlns="http://www.w3.org/2000/svg" width="1200" height="900" viewBox="0 0 1200 900" fill="none">
  <defs>
    <linearGradient id="bg" x1="70" y1="60" x2="1120" y2="860" gradientUnits="userSpaceOnUse">
      <stop stop-color="#431407"/>
      <stop offset="0.55" stop-color="#EA580C"/>
      <stop offset="1" stop-color="#F59E0B"/>
    </linearGradient>
  </defs>
  <rect width="1200" height="900" rx="36" fill="url(#bg)"/>
  <circle cx="980" cy="130" r="150" fill="#FFFFFF" fill-opacity="0.08"/>
  <circle cx="200" cy="740" r="170" fill="#FFFFFF" fill-opacity="0.07"/>
  <rect x="116" y="580" width="214" height="176" rx="28" fill="#FFFFFF" fill-opacity="0.12"/>
  <rect x="370" y="566" width="288" height="190" rx="30" fill="#FFFFFF" fill-opacity="0.16"/>
  <rect x="706" y="594" width="384" height="158" rx="32" fill="#FFFFFF" fill-opacity="0.14"/>
  <rect x="172" y="640" width="102" height="52" rx="20" fill="#FFF7ED" fill-opacity="0.8"/>
  <rect x="444" y="626" width="140" height="74" rx="22" fill="#FEF3C7" fill-opacity="0.85"/>
  <rect x="784" y="626" width="224" height="94" rx="30" fill="#FB923C" fill-opacity="0.88"/>
  <circle cx="514" cy="662" r="26" fill="#7C2D12" fill-opacity="0.2"/>
  <rect x="828" y="448" width="232" height="42" rx="21" fill="#FFFFFF" fill-opacity="0.22"/>
  <rect x="140" y="152" width="318" height="34" rx="17" fill="#FFFFFF" fill-opacity="0.16"/>
  <rect x="140" y="206" width="252" height="24" rx="12" fill="#FFFFFF" fill-opacity="0.1"/>
</svg>
